<mxfile host="app.diagrams.net" modified="2024-02-05T09:33:48.774Z" agent="Mozilla/5.0 (X11; Linux x86_64) AppleWebKit/537.36 (KHTML, like Gecko) Chrome/121.0.0.0 Safari/537.36" etag="PMJez1ZRflc5MRF8LUNa" version="23.1.1" type="device">
  <diagram name="Page-1" id="oJW4RRRlGO9KFvshEkQ7">
    <mxGraphModel dx="1167" dy="681" grid="1" gridSize="10" guides="1" tooltips="1" connect="1" arrows="1" fold="1" page="1" pageScale="1" pageWidth="827" pageHeight="1169" background="none" math="0" shadow="0">
      <root>
        <mxCell id="0" />
        <mxCell id="1" parent="0" />
        <mxCell id="fzTZWOh_sr2FfyW-UPfK-2" value="" style="shape=process;whiteSpace=wrap;html=1;backgroundOutline=1;size=0.5;fillColor=none;" parent="1" vertex="1">
          <mxGeometry x="200" y="110" width="110" height="50" as="geometry" />
        </mxCell>
        <mxCell id="fzTZWOh_sr2FfyW-UPfK-10" value="" style="shape=process;whiteSpace=wrap;html=1;backgroundOutline=1;size=0.5;align=center;fillColor=none;" parent="1" vertex="1">
          <mxGeometry x="310" y="110" width="110" height="50" as="geometry" />
        </mxCell>
        <mxCell id="fzTZWOh_sr2FfyW-UPfK-11" value="" style="shape=process;whiteSpace=wrap;html=1;backgroundOutline=1;size=0.5;fillColor=none;" parent="1" vertex="1">
          <mxGeometry x="420" y="110" width="110" height="50" as="geometry" />
        </mxCell>
        <mxCell id="fzTZWOh_sr2FfyW-UPfK-13" value="&lt;font style=&quot;font-size: 16px;&quot; color=&quot;#ea6b66&quot;&gt;P2&lt;/font&gt;" style="text;html=1;strokeColor=none;fillColor=none;align=center;verticalAlign=middle;whiteSpace=wrap;rounded=0;" parent="1" vertex="1">
          <mxGeometry x="203" y="110" width="50" height="50" as="geometry" />
        </mxCell>
        <mxCell id="fzTZWOh_sr2FfyW-UPfK-14" value="&lt;font style=&quot;font-size: 16px;&quot; color=&quot;#ea6b66&quot;&gt;P3&lt;/font&gt;" style="text;html=1;strokeColor=none;fillColor=none;align=center;verticalAlign=middle;whiteSpace=wrap;rounded=0;" parent="1" vertex="1">
          <mxGeometry x="258" y="110" width="50" height="50" as="geometry" />
        </mxCell>
        <mxCell id="fzTZWOh_sr2FfyW-UPfK-15" value="&lt;font style=&quot;font-size: 16px;&quot; color=&quot;#ea6b66&quot;&gt;P1&lt;/font&gt;" style="text;html=1;strokeColor=none;fillColor=none;align=center;verticalAlign=middle;whiteSpace=wrap;rounded=0;" parent="1" vertex="1">
          <mxGeometry x="312" y="110" width="50" height="50" as="geometry" />
        </mxCell>
        <mxCell id="fzTZWOh_sr2FfyW-UPfK-16" value="&lt;font style=&quot;font-size: 16px;&quot; color=&quot;#ea6b66&quot;&gt;P1&lt;/font&gt;" style="text;html=1;strokeColor=none;fillColor=none;align=center;verticalAlign=middle;whiteSpace=wrap;rounded=0;" parent="1" vertex="1">
          <mxGeometry x="368" y="110" width="50" height="50" as="geometry" />
        </mxCell>
        <mxCell id="fzTZWOh_sr2FfyW-UPfK-17" value="&lt;font color=&quot;#009900&quot; style=&quot;font-size: 16px;&quot;&gt;P3&lt;/font&gt;" style="text;html=1;strokeColor=none;fillColor=none;align=center;verticalAlign=middle;whiteSpace=wrap;rounded=0;" parent="1" vertex="1">
          <mxGeometry x="423" y="110" width="50" height="50" as="geometry" />
        </mxCell>
        <mxCell id="fzTZWOh_sr2FfyW-UPfK-18" value="&lt;font style=&quot;font-size: 16px;&quot; color=&quot;#ea6b66&quot;&gt;P2&lt;/font&gt;" style="text;html=1;strokeColor=none;fillColor=none;align=center;verticalAlign=middle;whiteSpace=wrap;rounded=0;" parent="1" vertex="1">
          <mxGeometry x="478" y="110" width="50" height="50" as="geometry" />
        </mxCell>
        <mxCell id="fzTZWOh_sr2FfyW-UPfK-58" value="&lt;font size=&quot;1&quot; style=&quot;&quot;&gt;&lt;b style=&quot;font-size: 17px;&quot;&gt;Mutate&lt;/b&gt;&lt;/font&gt;" style="text;html=1;strokeColor=none;fillColor=none;align=center;verticalAlign=middle;whiteSpace=wrap;rounded=0;" parent="1" vertex="1">
          <mxGeometry x="377.5" y="198" width="100.5" height="30" as="geometry" />
        </mxCell>
        <mxCell id="U4vuDA3ogn_ZmVwreYOG-1" value="" style="shape=process;whiteSpace=wrap;html=1;backgroundOutline=1;size=0.5;fillColor=none;" parent="1" vertex="1">
          <mxGeometry x="200" y="260" width="110" height="50" as="geometry" />
        </mxCell>
        <mxCell id="U4vuDA3ogn_ZmVwreYOG-2" value="" style="shape=process;whiteSpace=wrap;html=1;backgroundOutline=1;size=0.5;align=center;fillColor=none;" parent="1" vertex="1">
          <mxGeometry x="310" y="260" width="110" height="50" as="geometry" />
        </mxCell>
        <mxCell id="U4vuDA3ogn_ZmVwreYOG-3" value="" style="shape=process;whiteSpace=wrap;html=1;backgroundOutline=1;size=0.5;fillColor=none;" parent="1" vertex="1">
          <mxGeometry x="420" y="260" width="110" height="50" as="geometry" />
        </mxCell>
        <mxCell id="U4vuDA3ogn_ZmVwreYOG-4" value="&lt;font style=&quot;font-size: 16px;&quot; color=&quot;#ea6b66&quot;&gt;P2&lt;/font&gt;" style="text;html=1;strokeColor=none;fillColor=none;align=center;verticalAlign=middle;whiteSpace=wrap;rounded=0;" parent="1" vertex="1">
          <mxGeometry x="203" y="260" width="50" height="50" as="geometry" />
        </mxCell>
        <mxCell id="U4vuDA3ogn_ZmVwreYOG-5" value="&lt;font style=&quot;font-size: 16px;&quot; color=&quot;#ea6b66&quot;&gt;P3&lt;/font&gt;" style="text;html=1;strokeColor=none;fillColor=none;align=center;verticalAlign=middle;whiteSpace=wrap;rounded=0;" parent="1" vertex="1">
          <mxGeometry x="258" y="260" width="50" height="50" as="geometry" />
        </mxCell>
        <mxCell id="U4vuDA3ogn_ZmVwreYOG-6" value="&lt;font style=&quot;font-size: 16px;&quot; color=&quot;#ea6b66&quot;&gt;P1&lt;/font&gt;" style="text;html=1;strokeColor=none;fillColor=none;align=center;verticalAlign=middle;whiteSpace=wrap;rounded=0;" parent="1" vertex="1">
          <mxGeometry x="312" y="260" width="50" height="50" as="geometry" />
        </mxCell>
        <mxCell id="U4vuDA3ogn_ZmVwreYOG-7" value="&lt;font style=&quot;font-size: 16px;&quot; color=&quot;#ea6b66&quot;&gt;P1&lt;/font&gt;" style="text;html=1;strokeColor=none;fillColor=none;align=center;verticalAlign=middle;whiteSpace=wrap;rounded=0;" parent="1" vertex="1">
          <mxGeometry x="368" y="260" width="50" height="50" as="geometry" />
        </mxCell>
        <mxCell id="U4vuDA3ogn_ZmVwreYOG-8" value="&lt;font color=&quot;#009900&quot; style=&quot;font-size: 16px;&quot;&gt;P1&lt;/font&gt;" style="text;html=1;strokeColor=none;fillColor=none;align=center;verticalAlign=middle;whiteSpace=wrap;rounded=0;" parent="1" vertex="1">
          <mxGeometry x="423" y="260" width="50" height="50" as="geometry" />
        </mxCell>
        <mxCell id="U4vuDA3ogn_ZmVwreYOG-9" value="&lt;font style=&quot;font-size: 16px;&quot; color=&quot;#ea6b66&quot;&gt;P2&lt;/font&gt;" style="text;html=1;strokeColor=none;fillColor=none;align=center;verticalAlign=middle;whiteSpace=wrap;rounded=0;" parent="1" vertex="1">
          <mxGeometry x="478" y="260" width="50" height="50" as="geometry" />
        </mxCell>
        <mxCell id="4booz7a9s4OmnvwGmYIV-1" value="" style="shape=flexArrow;endArrow=classic;html=1;rounded=0;" edge="1" parent="1">
          <mxGeometry width="50" height="50" relative="1" as="geometry">
            <mxPoint x="365" y="178" as="sourcePoint" />
            <mxPoint x="365" y="248" as="targetPoint" />
          </mxGeometry>
        </mxCell>
      </root>
    </mxGraphModel>
  </diagram>
</mxfile>
